<mxfile host="app.diagrams.net" modified="2023-06-07T16:15:47.888Z" agent="Mozilla/5.0 (Windows NT 10.0; Win64; x64) AppleWebKit/537.36 (KHTML, like Gecko) Chrome/114.0.0.0 Safari/537.36" version="21.3.7" etag="4k_RwCn7w16XpQo6sr8a" type="github">
  <diagram name="Page-1" id="y43NJ6GkG1UE_xLQEl_R">
    <mxGraphModel>
      <root>
        <mxCell id="0" />
        <mxCell id="1" parent="0" />
      </root>
    </mxGraphModel>
  </diagram>
</mxfile>
